<svg version="1.2" xmlns="http://www.w3.org/2000/svg" viewBox="0 0 500 500" width="500" height="500">
	<title>moon-svg</title>
	<defs>
		<clipPath clipPathUnits="userSpaceOnUse" id="cp1">
			<path d="m21 21h458v458h-458z"/>
		</clipPath>
	</defs>
	<style>
		.s0 { fill: #2f3138 } 
		.s1 { fill: #ffffff } 
	</style>
	<path id="Forma 1" class="s0" d="m250 500c-138.3 0-250-111.7-250-250 0-138.3 111.7-250 250-250 138.3 0 250 111.8 250 250 0 138.3-111.8 250-250 250z"/>
	<g id="Clip-Path" clip-path="url(#cp1)">
		<g id="Layer">
			<path id="Layer" fill-rule="evenodd" class="s1" d="m250 479c-126.6 0-229-102.4-229-229 0-126.6 102.4-229 229-229 126.6 0 229 102.4 229 229 0 126.6-102.4 229-229 229zm125.1-299.8c0 108-87.7 195.7-195.7 195.7-36.7 0-71.1-10.2-100.5-27.8 34.2 56.9 96.6 95.1 167.8 95.1 108 0 195.7-87.7 195.7-195.7 0-71.2-38.2-133.6-95.2-167.8 17.7 29.4 27.9 63.8 27.9 100.5z"/>
		</g>
	</g>
</svg>